<?xml version="1.0" standalone="no"?>
<!DOCTYPE svg PUBLIC "-//W3C//DTD SVG 1.1//EN" "http://www.w3.org/Graphics/SVG/1.1/DTD/svg11.dtd" >
<svg xmlns="http://www.w3.org/2000/svg">
<metadata></metadata>
<defs>
<font id="DotsiesMedium" horiz-adv-x="320" >
<font-face units-per-em="2048" ascent="1638" descent="-410" />
<missing-glyph horiz-adv-x="640" />
<glyph horiz-adv-x="0" />
<glyph horiz-adv-x="2048" />
<glyph unicode="&#xd;" horiz-adv-x="682" />
<glyph unicode=" "  horiz-adv-x="640" />
<glyph unicode="&#x09;" horiz-adv-x="640" />
<glyph unicode="&#xa0;" horiz-adv-x="640" />
<glyph unicode="!" horiz-adv-x="960" d="M363 1263q-5 97 1 180t34 129t76 46t76 -46t35 -129t3 -180t-19 -221t-31 -229q-43 -283 -58 -413q-12 102 -46 310t-50 332t-21 221zM374 198q26 54 100 54t106 -54t4 -108t-98 -54t-104 54t-8 108z" />
<glyph unicode="&#x22;" horiz-adv-x="1142" d="M300 1150v568h118v-568h-118zM718 1150v568h124v-568h-124z" />
<glyph unicode="#" horiz-adv-x="1224" d="M184 478v94h228v310h-226v102h224v424h100v-424h184l2 430h98v-430h234v-104l-230 -2l-2 -306h248v-96h-250v-370h-96v370h-190v-368h-94v370h-230zM510 572h188v308h-186z" />
<glyph unicode="$" horiz-adv-x="1252" d="M214 462l142 28q40 -92 81 -115t153 -20t159 37t42 92t-145 183t-277 250t-137 175q0 82 56 152t118 102t104 36v204h150v-196q151 -14 242 -144q14 -20 30 -47t28 -45l-136 -30q-56 78 -97 107t-131 29t-151 -41t-61 -109q0 -47 280 -265q104 -81 192 -178t88 -164 t-33 -123t-83 -89q-92 -61 -184 -79v-208h-150v216q-132 14 -206 112q-34 43 -49 77.5t-25 52.5z" />
<glyph unicode="%" horiz-adv-x="1584" d="M243 1222q45 118 165 118q72 0 126 -47t71 -115t11 -137t-54 -117t-124 -50q-126 -2 -183 114t-12 234zM306 436l108 -138l864 856l-120 132zM329 1050q21 -56 91 -56t97 56t1 112t-86 56t-92 -56t-11 -112zM980 422q-8 70 6 141t60 120t110 49t117 -49t71 -119t12 -141 t-57 -120t-132 -49t-130 49t-57 119zM1062 431q20 -53 100 -53q44 0 72 23t32 56t-5 65t-36 54t-71 20t-78 -57t-14 -108z" />
<glyph unicode="&#x26;" horiz-adv-x="1352" d="M218 530q14 100 76 194t156 150q-98 144 -127 251t-11 168t65 126t88 92t90 25t77 -8t65 -20t75 -37t97 -63t93 -60l-70 -108q-26 18 -75 54t-76 54t-69 37t-71 19q-74 0 -133 -70q-68 -81 -11 -223q57 -141 136 -247t125 -166t99 -126t77 -98l132 168l90 -108l-140 -158 l160 -190l-100 -88l-142 168q-60 -50 -101 -79t-132 -60t-186 -31t-155 49t-79 117q-46 166 -23 268zM345 460q-7 -94 45 -186q50 -84 191 -47t231 153q-20 24 -52 62q-61 73 -81.5 102.5t-43.5 59.5t-62 80t-59 78q-72 -50 -117 -129t-52 -173z" />
<glyph unicode="'" horiz-adv-x="722" d="M300 1150v568h122v-568h-122z" />
<glyph unicode="(" horiz-adv-x="1018" d="M300 790q2 238 66 427t190 397h162q-230 -474 -232 -824q-2 -170 53 -356t171 -434h-166q-12 24 -52 100t-50 97l-40 84q-30 63 -38 91t-26 86t-23 102q-15 132 -15 230z" />
<glyph unicode=")" horiz-adv-x="1018" d="M300 1614q230 -474 232 -824q2 -170 -53 -356t-171 -434h166q12 24 52 100t50 97l40 84q30 63 38 91t26 86t23 102q15 132 15 230q-2 238 -66 427t-190 397h-162z" />
<glyph unicode="*" horiz-adv-x="1472" d="M332 1104l62 126l294 -132l-16 366l142 2l-8 -368l296 148l68 -126l-322 -132l248 -228l-102 -100l-246 252l-216 -272l-114 84l238 268z" />
<glyph unicode="+" horiz-adv-x="1400" d="M240 684v164h372v386h170v-386h376l2 -164h-378v-390h-174v390h-368z" />
<glyph unicode="," horiz-adv-x="1020" d="M284 -326l288 650l162 -156l-352 -528z" />
<glyph unicode="-" horiz-adv-x="1400" d="M240 714v166h920v-166h-920z" />
<glyph unicode="." horiz-adv-x="1048" d="M230 0q0 32 128 168t158 136t166 -136t136 -168t-131 -167t-166 -135t-163 135t-128 167z" />
<glyph unicode="/" horiz-adv-x="1300" d="M240 44l644 1484l176 2l-638 -1488z" />
<glyph unicode="0" horiz-adv-x="900" d="M122 779q0 175 3 268t14 195t33 164t57 116q66 102 219 102q178 0 254 -126q60 -99 70 -361q6 -155 6 -224v-107q6 -435 -48 -591q-51 -147 -145 -189q-53 -24 -143 -24t-159 53t-103 168t-46 248t-12 308zM284 721q0 -208 8 -265.5t16 -104.5t21 -75t31 -56 q33 -52 96.5 -52t99.5 56t46 141q25 212 14 373v66l4 234q0 167 -12 223.5t-30 98.5q-37 86 -130 86q-62 0 -100 -55t-49 -139q-26 -202 -15 -382v-149z" />
<glyph unicode="1" horiz-adv-x="900" d="M254 0v196h108v1118h-106l100 282h184v-1400h108v-196h-394z" />
<glyph unicode="2" horiz-adv-x="900" d="M100 1440q42 22 89 65t94 67t121 24q146 0 255 -122t109 -374q0 -126 -47 -234t-104 -167t-114 -115t-69 -82q-82 -186 -106 -340h428q-2 -12 -2 -28l8 -134h-632q32 452 136 598q16 22 111 127t156 200t63 179q4 132 -57 243t-123 111q-94 0 -186 -88z" />
<glyph unicode="3" horiz-adv-x="900" d="M118 208q18 -20 61 -74t64 -73t71 -40t116 -21q126 0 250 121t126 313q0 108 -56 206t-148 166q84 66 137 174t51 239t-31 216t-84 122t-106 48t-118 11t-121 -29t-85 -64t-69 -81t-58 -62l150 -50q12 12 51 58t69 68t66 22q66 0 115 -63t49 -191q0 -84 -70 -186 t-140 -162l-68 -60q95 -63 159 -135q125 -137 121 -237q-6 -140 -58 -220t-138 -80q-40 0 -90 44t-84 98z" />
<glyph unicode="4" horiz-adv-x="900" d="M150 594l78 1008h164l-60 -810h250v804l166 12l2 -1608h-166v594h-434z" />
<glyph unicode="5" horiz-adv-x="900" d="M162 1628h572l-2 -186h-398l2 -530q28 2 58 7q46 8 146 5q64 -2 118 -75q102 -138 112 -347q4 -106 -36 -221t-114 -195t-158 -80q-122 0 -165 20t-119 100l110 114q90 -100 162 -84q44 10 98 131t44 215q0 54 -6 76t-12 56t-15 48t-22 36q-23 40 -79 45t-101 -7t-99 -36 t-94 -34z" />
<glyph unicode="6" horiz-adv-x="900" d="M134 785q-2 409 111 630t253 221q109 0 156 -55q67 -78 108 -101l-130 -70q-10 10 -27 28t-23 23t-20 13q-21 12 -66 12q-62 0 -124 -181t-80 -453l2 2q48 116 173 117t207 -147t84 -288t-27 -253t-98 -197t-167 -84q-166 2 -248 188t-84 595zM314 464q2 -130 43 -209 t92 -85t96 70t52 248t-64 255t-146 0t-73 -279z" />
<glyph unicode="7" horiz-adv-x="900" d="M164 1424v202h592q-14 -194 -49 -428t-81 -356t-109 -412t-67 -418l-172 -2q0 240 64 524t107 381t105 509h-390z" />
<glyph unicode="8" horiz-adv-x="900" d="M136 402q0 112 62 229t142 191q-204 242 -204 396q0 206 88 311t222 105q74 0 123 -11t100 -48q103 -75 95 -337q-6 -210 -83 -302q-39 -47 -80 -74.5t-49 -33.5q208 -208 208 -422q0 -146 -86 -277t-212 -131t-226 146t-100 258zM311 386q1 -62 57 -144t96 -82t89 80 t49 169t-28 136t-114 129q-8 -8 -31 -33t-30 -32t-25 -28t-23 -31t-16 -30t-15 -35q-10 -37 -9 -99zM315 1245q3 -73 39 -142t66 -104t35 -33t16 10t38 35t47 58q56 87 56 181q2 226 -160 226q-56 0 -98 -79t-39 -152z" />
<glyph unicode="9" horiz-adv-x="900" d="M144 158l130 120q16 -16 33 -38t27 -32q28 -28 76 -28q142 0 204 476h-2q-44 -98 -172 -98q-84 0 -154 84t-104 195t-34 207t17 193t50 187t92 148t133 58q110 -2 175 -78q137 -160 137 -846q0 -520 -219 -665q-59 -39 -121 -39t-102 17t-58 38q-67 78 -108 101z M320 1075q-8 -223 84 -299q64 -54 126 12q84 92 65 314t-86 296q-29 32 -61 28t-59 -42q-61 -86 -69 -309z" />
<glyph unicode=":" horiz-adv-x="888" d="M300 372l144 184l144 -184l-144 -184zM300 1238l144 184l144 -184l-144 -184z" />
<glyph unicode=";" horiz-adv-x="888" d="M184 -326l288 650l162 -156l-352 -528zM310 1038l144 184l144 -184l-144 -184z" />
<glyph unicode="&#x3c;" horiz-adv-x="1266" d="M232 782l666 604l126 -152l-564 -450l574 -448l-118 -146z" />
<glyph unicode="=" horiz-adv-x="1208" d="M234 312v190h740v-190h-740zM234 856l2 186l736 2l2 -186z" />
<glyph unicode="&#x3e;" horiz-adv-x="1266" d="M232 336l118 -146l684 592l-666 604l-126 -152l564 -450z" />
<glyph unicode="?" horiz-adv-x="1316" d="M256 1311q-18 35 12 81q50 62 88 101t122 83t176 44q186 0 306 -130t120 -362q0 -96 -49 -182t-109 -136t-122 -101t-85 -92t-75 -253q-8 38 -24 99t-22 89t-8 68q-4 71 44 130q36 36 102 124t79 115q35 74 39 131q6 146 -37 223t-161 77q-56 0 -143 -46t-111 -77 t-74 -26t-68 40zM537 128q-3 42 27 78t89 36t89 -36t27 -78t-35 -78t-82 -36t-81 36t-34 78z" />
<glyph unicode="@" horiz-adv-x="1316" d="M231 898q1 -160 16 -268t38 -185t60 -134t74 -92t89 -56t95 -29t103 -8t101 4t101 11t92 9l-48 206q-16 -2 -74 -15t-94 -20t-96 -7t-99 14t-85 51t-71 96q-58 138 -47 385q8 146 39 250t72 156t97 76t103 24t99 -15q61 -18 98.5 -38.5t44.5 -28.5t11 -20t7 -22t3 -28 v-29q0 -22 -5 -49.5t-9 -54.5t-6 -37q-182 24 -286 -28t-104 -162q0 -204 107 -254t427 -4q71 547 44 711q-14 85 -45 107t-84 45t-134 41t-165 21t-169 -30t-152 -99t-108 -200t-40 -294zM676 818q-2 62 42 79t103 9t113 14l-12 -198q-52 20 -105 11t-96 7t-45 78z" />
<glyph unicode="A" d="M0 1294v324h328v-322zM70 1762v254h180v-254h-180z" />
<glyph unicode="B" d="M0 970v324h328v-324h-328zM70 1762v254h180v-254h-180z" />
<glyph unicode="C" d="M0 648v322h328v-322h-328zM70 1762v254h180v-254h-180z" />
<glyph unicode="D" d="M0 324v324h328v-324h-328zM70 1762v254h180v-254h-180z" />
<glyph unicode="E" d="M0 0v324h328v-324h-328zM70 1762v254h180v-254h-180z" />
<glyph unicode="F" d="M0 970v648h328v-648h-328zM70 1762v254h180v-254h-180z" />
<glyph unicode="G" d="M0 648v646h328v-646h-328zM70 1762v254h180v-254h-180z" />
<glyph unicode="H" d="M0 324v646h328v-646h-328zM70 1762v254h180v-254h-180z" />
<glyph unicode="I" d="M0 0v648h328v-648h-328zM70 1762v254h180v-254h-180z" />
<glyph unicode="J" d="M0 648v322h328v-322h-328zM0 1294v324h328v-324h-328zM70 1762v254h180v-254h-180z" />
<glyph unicode="K" d="M0 324v324h328v-324h-328zM0 970v324h328v-324h-328zM70 1762v254h180v-254h-180z" />
<glyph unicode="L" d="M0 0v324h328v-324h-328zM0 648v322h328v-322h-328zM70 1762v254h180v-254h-180z" />
<glyph unicode="M" d="M0 324v324h328v-324h-328zM0 1294v324h328v-324h-328zM70 1762v254h180v-254h-180z" />
<glyph unicode="N" d="M0 0v324h328v-324h-328zM0 970v324h328v-324h-328zM70 1762v254h180v-254h-180z" />
<glyph unicode="O" d="M0 0v324h328v-324h-328zM0 1294v324h328v-324h-328zM70 1762v254h180v-254h-180z" />
<glyph unicode="P" d="M0 648v970h328v-970h-328zM70 1762v254h180v-254h-180z" />
<glyph unicode="Q" d="M0 324v324h328v-324h-328zM0 970v648h328v-648h-328zM70 1762v254h180v-254h-180z" />
<glyph unicode="R" d="M0 324v646h328v-646h-328zM0 1294v324h328v-324h-328zM70 1762v254h180v-254h-180z" />
<glyph unicode="S" d="M0 324v970h328v-970h-328zM70 1762v254h180v-254h-180z" />
<glyph unicode="T" d="M0 0v324h328v-324h-328zM0 648v646h328v-646h-328zM70 1762v254h180v-254h-180z" />
<glyph unicode="U" d="M0 0v648h328v-648h-328zM0 970v324h328v-324h-328zM70 1762v254h180v-254h-180z" />
<glyph unicode="V" d="M0 0v970h328v-970h-328zM70 1762v254h180v-254h-180z" />
<glyph unicode="W" d="M0 0v324h328v-324h-328zM0 970v648h328v-648h-328zM70 1762v254h180v-254h-180z" />
<glyph unicode="X" d="M0 0v324h328v-324h-328zM0 648v322h328v-322h-328zM0 1294v324h328v-324h-328zM70 1762v254h180v-254h-180z" />
<glyph unicode="Y" d="M0 0v648h328v-648h-328zM0 1294v324h328v-324h-328zM70 1762v254h180v-254h-180z" />
<glyph unicode="Z" d="M0 0v648h328v-648h-328zM0 970v648h328v-648h-328zM70 1762v254h180v-254h-180z" />
<glyph unicode="[" horiz-adv-x="1014" d="M300 0l2 1626h402v-206h-222v-1218h232v-202h-414z" />
<glyph unicode="\" horiz-adv-x="1152" d="M236 1528l504 -1484l176 -2l-498 1488z" />
<glyph unicode="]" horiz-adv-x="1014" d="M300 0h414l-2 1626h-402v-206h222v-1218h-232v-202z" />
<glyph unicode="^" horiz-adv-x="1028" d="M260 1196l244 344l264 -360l-94 -112l-166 256l-164 -254z" />
<glyph unicode="_" horiz-adv-x="1200" d="M230 -62h740v-150h-740v150z" />
<glyph unicode="`" d="M0 1452v132l320 -326v-128z" />
<glyph unicode="a" d="M0 1294v324h328v-324h-328z" />
<glyph unicode="b" d="M0 970v324h328v-324h-328z" />
<glyph unicode="c" d="M0 648v322h328v-322h-328z" />
<glyph unicode="d" d="M0 324v324h328v-324h-328z" />
<glyph unicode="e" d="M0 0v324h328v-324h-328z" />
<glyph unicode="f" d="M0 970v648h328v-648h-328z" />
<glyph unicode="g" d="M0 648v646h328v-646h-328z" />
<glyph unicode="h" d="M0 324v646h328v-646h-328z" />
<glyph unicode="i" d="M0 0v648h328v-648h-328z" />
<glyph unicode="j" d="M0 648v322h328v-322h-328zM0 1294v324h328v-324h-328z" />
<glyph unicode="k" d="M0 324v324h328v-324h-328zM0 970v324h328v-324h-328z" />
<glyph unicode="l" d="M0 0v324h328v-324h-328zM0 648v322h328v-322h-328z" />
<glyph unicode="m" d="M0 324v324h328v-324h-328zM0 1294v324h328v-324h-328z" />
<glyph unicode="n" d="M0 0v324h328v-324h-328zM0 970v324h328v-324h-328z" />
<glyph unicode="o" d="M0 0v324h328v-324h-328zM0 1294v324h328v-324h-328z" />
<glyph unicode="p" d="M0 648v970h328v-970h-328z" />
<glyph unicode="q" d="M0 324v324h328v-324h-328zM0 970v648h328v-648h-328z" />
<glyph unicode="r" d="M0 324v646h328v-646h-328zM0 1294v324h328v-324h-328z" />
<glyph unicode="s" d="M0 324v970h328v-970h-328z" />
<glyph unicode="t" d="M0 0v324h328v-324h-328zM0 648v646h328v-646h-328z" />
<glyph unicode="u" d="M0 0v648h328v-648h-328zM0 970v324h328v-324h-328z" />
<glyph unicode="v" d="M0 0v970h328v-970h-328z" />
<glyph unicode="w" d="M0 0v324h328v-324h-328zM0 970v648h328v-648h-328z" />
<glyph unicode="x" d="M0 0v324h328v-324h-328zM0 648v322h328v-322h-328zM0 1294v324h328v-324h-328z" />
<glyph unicode="y" d="M0 0v648h328v-648h-328zM0 1294v324h328v-324h-328z" />
<glyph unicode="z" d="M0 0v648h328v-648h-328zM0 970v648h328v-648h-328z" />
<glyph unicode="{" horiz-adv-x="1116" d="M300 798q22 36 61 96t52 84t31 70q30 77 27 191.5t14 166.5t41 72q94 78 128 136h162q-32 -67 -112 -143q-52 -49 -48 -227v-101q0 -41 -7 -80t-10 -56t-22 -50t-25 -43t-40 -54t-48 -64q112 -130 142 -204t24 -190t6 -174t31 -82q79 -100 101 -146h-166q-29 58 -111 136 q-53 50 -49 220q4 106 -8 154l-17 68q-10 39 -74.5 118.5t-82.5 101.5z" />
<glyph unicode="|" horiz-adv-x="820" d="M330 2v1636h160v-1636h-160z" />
<glyph unicode="}" horiz-adv-x="1116" d="M300 1614q32 -67 112 -143q52 -49 48 -227v-101q0 -41 7 -80t10 -56t22 -50t25 -43t40 -54t48 -64q-112 -130 -142 -204t-24 -190t-6 -174t-31 -82q-79 -100 -101 -146h166q29 58 111 136q53 50 49 220q-4 106 8 154l17 68t27 52t32 46q13 18 98 122q-22 36 -61 96 t-52 84t-31 70q-30 77 -27 191.5t-14 166.5t-41 72q-94 78 -128 136h-162z" />
<glyph unicode="~" horiz-adv-x="964" d="M182 1364q28 30 66 90t71 93t73 33t72 -48t56 -96t44 -48t49 28t72 78t69 74l28 -130q-30 -28 -71 -83t-74 -86t-66 -31t-59 29t-42 64q-43 94 -74 91q-39 -3 -117 -111q-37 -51 -61 -77z" />
<glyph unicode="&#xa9;" horiz-adv-x="1704" d="M292 719q-10 95 0 191t55 182t109 152t164 105t237 39t257 -64t183 -166t92 -226t1 -247t-91 -224t-184 -164t-258 -61t-237 42t-164 107t-109 153t-55 181zM406 738q8 -76 44 -145t88 -123t133 -86t177 -32t177 31t133 83t88 121t44 145t0 152t-44 145t-88 123t-133 86 t-177 32t-177 -31t-133 -83t-88 -121t-44 -145t0 -152zM596 796q0 126 45 200t109 92t132 11t120 -33t66 -50l-44 -60q-18 20 -71 37t-115 18t-110 -52t-48 -157t44 -156t102 -53t111 17t75 46l68 -48q-18 -45 -112 -77q-110 -37 -176 -21t-106 45q-90 65 -90 241z" />
<glyph unicode="&#xab;" horiz-adv-x="1296" d="M260 804l308 538l42 -36q58 -50 61 -50t-66 -112t-139 -225t-70 -115l280 -450l-104 -86zM620 804l308 538l42 -36q58 -50 61 -50t-66 -112t-139 -225t-70 -115l280 -450l-104 -86z" />
<glyph unicode="&#xad;" horiz-adv-x="1800" d="M240 714v166h1320v-166h-1320z" />
<glyph unicode="&#xb0;" horiz-adv-x="1354" d="M355 1175q15 71 50 129t103 95t163 37t171 -48t111 -119t36 -155t-32 -157t-106 -123t-168 -52t-164 33t-106 92t-55 127t-3 141zM478 1045q12 -61 61 -103t121 -44q120 -2 173 104t6 212t-171 102q-76 -2 -127 -46t-63 -104t0 -121z" />
<glyph unicode="&#xb4;" d="M0 1632v88l456 276v-90z" />
<glyph unicode="&#xb7;" horiz-adv-x="1048" d="M240 838q0 32 123 163t153 131t161 -131t131 -163t-126 -162t-161 -130t-158 130t-123 162z" />
<glyph unicode="&#xbb;" horiz-adv-x="1296" d="M260 354l104 -86l312 536l-308 538l-42 -36q-58 -50 -61 -50t66 -112t139 -225t70 -115zM620 354l104 -86l312 536l-308 538l-42 -36q-58 -50 -61 -50t66 -112t139 -225t70 -115z" />
<glyph unicode="&#xbf;" horiz-adv-x="1216" d="M236 262q24 -28 67 -91t66 -86t81 -46t144 -23q180 0 281 120t105 332q5 194 -146 307q-102 77 -117 102t-22 43t-10 40t-4 31t0 37t1 36h-176q-14 -74 -4 -144t52 -121t112 -107t114 -107t46 -109q6 -140 -53 -220t-181 -80q-54 0 -77 14t-34 21t-28 26t-24 28t-26 36 t-25 35zM499 1327q27 -57 85 -57t86 36t28 78t-28 78t-86 36t-85 -57t0 -114z" />
<glyph unicode="&#xc0;" d="M-120 1906v170l456 -276v-168zM0 1294v324h328v-324h-328z" />
<glyph unicode="&#xc1;" d="M0 1294v324h328v-324h-328zM0 1632v168l456 276v-170z" />
<glyph unicode="&#xc2;" d="M-110 1750l214 270h106l226 -268l-2 -86l-276 178l-264 -180zM0 1294v324h328v-324h-328z" />
<glyph unicode="&#xc3;" d="M-136 1824q28 30 66 90t71 93t73 33t72 -48t56 -96t44 -48t49 28t72 78t69 74l28 -130q-30 -28 -71 -83t-74 -86t-66 -31t-59 29t-42 64q-43 94 -74 91q-39 -3 -117 -111q-37 -51 -61 -77zM0 1294v324h328v-324h-328z" />
<glyph unicode="&#xc4;" d="M-176 1840l154 144l156 -144l-154 -148zM0 1294v324h328v-324h-328zM184 1842l154 144l156 -144l-154 -148z" />
<glyph unicode="&#xc5;" d="M-187 1823q-21 45 1 90t115 76t228 31t232 -31t123 -76t8 -90t-115 -76t-240 -31t-237 31t-115 76zM-111 1841q75 -27 275 -27t275 27t-10 54t-269 27t-265 -27t-6 -54zM0 1294v324h328v-324h-328z" />
<glyph unicode="&#xc6;" d="M0 0v324h328v-324h-328zM0 648v970h328v-970h-328z" />
<glyph unicode="&#xc7;" d="M-187 1823q-21 45 1 90t115 76t228 31t232 -31t123 -76t8 -90t-115 -76t-240 -31t-237 31t-115 76zM-111 1841q75 -27 275 -27t275 27t-10 54t-269 27t-265 -27t-6 -54zM0 648v322h328v-322h-328z" />
<glyph unicode="&#xc8;" d="M-120 1906v170l456 -276v-168zM0 0v324h328v-324h-328z" />
<glyph unicode="&#xc9;" d="M0 0v324h328v-324h-328zM0 1632v168l456 276v-170z" />
<glyph unicode="&#xca;" d="M-110 1750l214 270h106l226 -268l-2 -86l-276 178l-264 -180zM0 0v324h328v-324h-328z" />
<glyph unicode="&#xcb;" d="M-176 1840l154 144l156 -144l-154 -148zM0 0v324h328v-324h-328zM184 1842l154 144l156 -144l-154 -148z" />
<glyph unicode="&#xcc;" d="M-120 1906v170l456 -276v-168zM0 0v648h328v-648h-328z" />
<glyph unicode="&#xcd;" d="M0 0v648h328v-648h-328zM0 1632v168l456 276v-170z" />
<glyph unicode="&#xce;" d="M-110 1750l214 270h106l226 -268l-2 -86l-276 178l-264 -180zM0 0v648h328v-648h-328z" />
<glyph unicode="&#xcf;" d="M-176 1840l154 144l156 -144l-154 -148zM0 0v648h328v-648h-328zM184 1842l154 144l156 -144l-154 -148z" />
<glyph unicode="&#xd1;" d="M-136 1824q28 30 66 90t71 93t73 33t72 -48t56 -96t44 -48t49 28t72 78t69 74l28 -130q-30 -28 -71 -83t-74 -86t-66 -31t-59 29t-42 64q-43 94 -74 91q-39 -3 -117 -111q-37 -51 -61 -77zM0 0v324h328v-324h-328zM0 970v324h328v-324h-328z" />
<glyph unicode="&#xd2;" d="M-120 1906v170l456 -276v-168zM0 0v324h328v-324h-328zM0 1294v324h328v-324h-328z" />
<glyph unicode="&#xd3;" d="M0 0v324h328v-324h-328zM0 1294v324h328v-324h-328zM0 1632v168l456 276v-170z" />
<glyph unicode="&#xd4;" d="M-110 1750l214 270h106l226 -268l-2 -86l-276 178l-264 -180zM0 0v324h328v-324h-328zM0 1294v324h328v-324h-328z" />
<glyph unicode="&#xd5;" d="M-136 1824q28 30 66 90t71 93t73 33t72 -48t56 -96t44 -48t49 28t72 78t69 74l28 -130q-30 -28 -71 -83t-74 -86t-66 -31t-59 29t-42 64q-43 94 -74 91q-39 -3 -117 -111q-37 -51 -61 -77zM0 0v324h328v-324h-328zM0 1294v324h328v-324h-328z" />
<glyph unicode="&#xd6;" d="M-176 1840l154 144l156 -144l-154 -148zM0 0v324h328v-324h-328zM0 1294v324h328v-324h-328zM184 1842l154 144l156 -144l-154 -148z" />
<glyph unicode="&#xd8;" d="M0 324v1294h328v-1294h-328z" />
<glyph unicode="&#xd9;" d="M-120 1906v170l456 -276v-168zM0 0v648h328v-648h-328zM0 970v324h328v-324h-328z" />
<glyph unicode="&#xda;" d="M0 0v648h328v-648h-328zM0 970v324h328v-324h-328zM0 1632v168l456 276v-170z" />
<glyph unicode="&#xdb;" d="M-110 1750l214 270h106l226 -268l-2 -86l-276 178l-264 -180zM0 0v648h328v-648h-328zM0 970v324h328v-324h-328z" />
<glyph unicode="&#xdc;" d="M-176 1840l154 144l156 -144l-154 -148zM0 0v648h328v-648h-328zM0 970v324h328v-324h-328zM184 1842l154 144l156 -144l-154 -148z" />
<glyph unicode="&#xdd;" d="M0 0v648h328v-648h-328zM0 1294v324h328v-324h-328zM0 1632v88l456 276v-90z" />
<glyph unicode="&#xdf;" d="M0 0v1618h328v-1618h-328z" />
<glyph unicode="&#xe0;" d="M-120 1906v90l456 -276v-88zM0 1294v324h328v-324h-328z" />
<glyph unicode="&#xe1;" d="M0 1294v324h328v-324h-328zM0 1632v88l456 276v-90z" />
<glyph unicode="&#xe2;" d="M-110 1690l214 270h106l226 -268l-2 -26l-276 198l-264 -200zM0 1294v324h328v-324h-328z" />
<glyph unicode="&#xe3;" d="M-136 1804q28 30 66 90t71 93t73 33t72 -48t56 -96t44 -48t49 28t72 78t69 74l28 -70q-30 -28 -71 -83t-74 -86t-66 -31t-59 29t-42 64q-43 94 -74 91q-39 -3 -117 -111q-37 -51 -61 -77zM0 1294v324h328v-324h-328z" />
<glyph unicode="&#xe4;" d="M-136 1840l114 104l116 -104l-114 -108zM0 1294v324h328v-324h-328zM224 1842l114 104l116 -104l-114 -108z" />
<glyph unicode="&#xe5;" d="M-193 1840q-19 28 0 56t59 51t117 38t194 15t213 -27t122 -66t7 -78t-116 -66t-219 -27t-200 15t-118 38t-59 51zM-112 1824q76 -44 278 -44t276 44t-12 88t-270 44t-266 -44t-6 -88zM0 1294v324h328v-324h-328z" />
<glyph unicode="&#xe6;" d="M0 0v970h328v-970h-328zM0 1294v324h328v-324h-328z" />
<glyph unicode="&#xe7;" d="M-193 1840q-19 28 0 56t59 51t117 38t194 15t213 -27t122 -66t7 -78t-116 -66t-219 -27t-200 15t-118 38t-59 51zM-112 1824q76 -44 278 -44t276 44t-12 88t-270 44t-266 -44t-6 -88zM0 648v322h328v-322h-328z" />
<glyph unicode="&#xe8;" d="M-120 1906v90l456 -276v-88zM0 0v324h328v-324h-328z" />
<glyph unicode="&#xe9;" d="M0 0v324h328v-324h-328zM0 1632v88l456 276v-90z" />
<glyph unicode="&#xea;" d="M-110 1690l214 270h106l226 -268l-2 -26l-276 198l-264 -200zM0 0v324h328v-324h-328z" />
<glyph unicode="&#xeb;" d="M-136 1840l114 104l116 -104l-114 -108zM0 0v324h328v-324h-328zM224 1842l114 104l116 -104l-114 -108z" />
<glyph unicode="&#xec;" d="M-120 1906v90l456 -276v-88zM0 0v648h328v-648h-328z" />
<glyph unicode="&#xed;" d="M0 0v648h328v-648h-328zM0 1632v88l456 276v-90z" />
<glyph unicode="&#xee;" d="M-110 1690l214 270h106l226 -268l-2 -26l-276 198l-264 -200zM0 0v648h328v-648h-328z" />
<glyph unicode="&#xef;" d="M-136 1840l114 104l116 -104l-114 -108zM0 0v648h328v-648h-328zM224 1842l114 104l116 -104l-114 -108z" />
<glyph unicode="&#xf1;" d="M-136 1804q28 30 66 90t71 93t73 33t72 -48t56 -96t44 -48t49 28t72 78t69 74l28 -70q-30 -28 -71 -83t-74 -86t-66 -31t-59 29t-42 64q-43 94 -74 91q-39 -3 -117 -111q-37 -51 -61 -77zM0 0v324h328v-324h-328zM0 970v324h328v-324h-328z" />
<glyph unicode="&#xf2;" d="M-120 1906v90l456 -276v-88zM0 0v324h328v-324h-328zM0 1294v324h328v-324h-328z" />
<glyph unicode="&#xf3;" d="M0 0v324h328v-324h-328zM0 1294v324h328v-324h-328zM0 1632v88l456 276v-90z" />
<glyph unicode="&#xf4;" d="M-110 1690l214 270h106l226 -268l-2 -26l-276 198l-264 -200zM0 0v324h328v-324h-328zM0 1294v324h328v-324h-328z" />
<glyph unicode="&#xf5;" d="M-136 1804q28 30 66 90t71 93t73 33t72 -48t56 -96t44 -48t49 28t72 78t69 74l28 -70q-30 -28 -71 -83t-74 -86t-66 -31t-59 29t-42 64q-43 94 -74 91q-39 -3 -117 -111q-37 -51 -61 -77zM0 0v324h328v-324h-328zM0 1294v324h328v-324h-328z" />
<glyph unicode="&#xf6;" d="M-136 1840l114 104l116 -104l-114 -108zM0 0v324h328v-324h-328zM0 1294v324h328v-324h-328zM224 1842l114 104l116 -104l-114 -108z" />
<glyph unicode="&#xf7;" horiz-adv-x="1400" d="M238 682h922l-2 166h-920v-166zM596 262v182h178v-182h-178zM602 1122h170v170h-170v-170z" />
<glyph unicode="&#xf8;" d="M0 0v1294h328v-1294h-328z" />
<glyph unicode="&#xf9;" d="M-120 1906v90l456 -276v-88zM0 0v648h328v-648h-328zM0 970v324h328v-324h-328z" />
<glyph unicode="&#xfa;" d="M0 0v648h328v-648h-328zM0 970v324h328v-324h-328zM0 1632v88l456 276v-90z" />
<glyph unicode="&#xfb;" d="M-110 1690l214 270h106l226 -268l-2 -26l-276 198l-264 -200zM0 0v648h328v-648h-328zM0 970v324h328v-324h-328z" />
<glyph unicode="&#xfc;" d="M-136 1840l114 104l116 -104l-114 -108zM0 0v648h328v-648h-328zM0 970v324h328v-324h-328zM224 1842l114 104l116 -104l-114 -108z" />
<glyph unicode="&#xfd;" d="M0 0v648h328v-648h-328zM0 1294v324h328v-324h-328zM0 1632v168l456 276v-170z" />
<glyph unicode="&#xff;" d="M-136 1840l114 104l116 -104l-114 -108zM0 0v648h328v-648h-328zM0 1294v324h328v-324h-328zM224 1842l114 104l116 -104l-114 -108z" />
<glyph unicode="&#x2000;" horiz-adv-x="1038" />
<glyph unicode="&#x2001;" horiz-adv-x="2076" />
<glyph unicode="&#x2002;" horiz-adv-x="1038" />
<glyph unicode="&#x2003;" horiz-adv-x="2076" />
<glyph unicode="&#x2004;" horiz-adv-x="692" />
<glyph unicode="&#x2005;" horiz-adv-x="519" />
<glyph unicode="&#x2006;" horiz-adv-x="346" />
<glyph unicode="&#x2007;" horiz-adv-x="346" />
<glyph unicode="&#x2008;" horiz-adv-x="259" />
<glyph unicode="&#x2009;" horiz-adv-x="415" />
<glyph unicode="&#x200a;" horiz-adv-x="115" />
<glyph unicode="&#x2010;" horiz-adv-x="1400" d="M240 714v166h920v-166h-920z" />
<glyph unicode="&#x2011;" horiz-adv-x="1400" d="M240 714v166h920v-166h-920z" />
<glyph unicode="&#x2012;" horiz-adv-x="1400" d="M240 714v166h920v-166h-920z" />
<glyph unicode="&#x2013;" horiz-adv-x="2048" d="M294 688l12 264l1338 12v-282z" />
<glyph unicode="&#x2014;" horiz-adv-x="1920" d="M240 714v166h1440v-166h-1440z" />
<glyph unicode="&#x2018;" horiz-adv-x="1136" d="M324 742l144 636h330z" />
<glyph unicode="&#x2019;" horiz-adv-x="808" d="M202 1042l144 726h264z" />
<glyph unicode="&#x201c;" horiz-adv-x="1334" d="M248 1800h260l96 -834zM712 1802l264 -2l110 -828z" />
<glyph unicode="&#x201d;" horiz-adv-x="1330" d="M250 988l98 792h260zM732 994l80 790l264 -4z" />
<glyph unicode="&#x202f;" horiz-adv-x="415" />
<glyph unicode="&#x205f;" horiz-adv-x="519" />
<glyph unicode="&#xe000;" horiz-adv-x="1620" d="M0 0v1620h1620v-1620h-1620z" />
</font>
</defs>
</svg>
